<?xml version="1.0" encoding="UTF-8" standalone="no"?>
<!-- Created with Inkscape (http://www.inkscape.org/) -->

<svg
   xmlns:dc="http://purl.org/dc/elements/1.1/"
   xmlns:cc="http://creativecommons.org/ns#"
   xmlns:rdf="http://www.w3.org/1999/02/22-rdf-syntax-ns#"
   xmlns:svg="http://www.w3.org/2000/svg"
   xmlns="http://www.w3.org/2000/svg"
   xmlns:xlink="http://www.w3.org/1999/xlink"
   xmlns:sodipodi="http://sodipodi.sourceforge.net/DTD/sodipodi-0.dtd"
   xmlns:inkscape="http://www.inkscape.org/namespaces/inkscape"
   width="244.89229mm"
   height="264.58334mm"
   viewBox="0 0 244.89229 264.58334"
   version="1.1"
   id="svg8"
   style="enable-background:new"
   inkscape:version="0.92.4 5da689c313, 2019-01-14"
   sodipodi:docname="watermelon.svg">
  <defs
     id="defs2">
    <inkscape:path-effect
       effect="roughen"
       id="path-effect912"
       is_visible="true"
       method="segments"
       max_segment_size="1"
       segments="9"
       displace_x="8.7;1091989027"
       displace_y="2;2147483646"
       global_randomize="1;2147483646"
       handles="along"
       shift_nodes="true"
       fixed_displacement="false"
       spray_tool_friendly="false" />
    <inkscape:path-effect
       spray_tool_friendly="false"
       fixed_displacement="false"
       shift_nodes="true"
       handles="along"
       global_randomize="1;2147483646"
       displace_y="2;2147483646"
       displace_x="8.7;1091989027"
       segments="9"
       max_segment_size="1"
       method="segments"
       is_visible="true"
       id="path-effect908"
       effect="roughen" />
    <inkscape:path-effect
       effect="roughen"
       id="path-effect904"
       is_visible="true"
       method="segments"
       max_segment_size="1"
       segments="13"
       displace_x="8.7;2147483646"
       displace_y="2;2147483646"
       global_randomize="1;2147483646"
       handles="along"
       shift_nodes="true"
       fixed_displacement="false"
       spray_tool_friendly="false" />
    <inkscape:path-effect
       spray_tool_friendly="false"
       fixed_displacement="false"
       shift_nodes="true"
       handles="along"
       global_randomize="1;1365100138"
       displace_y="2;2147483646"
       displace_x="8.7;1"
       segments="9"
       max_segment_size="1"
       method="segments"
       is_visible="true"
       id="path-effect900"
       effect="roughen" />
    <inkscape:path-effect
       effect="roughen"
       id="path-effect896"
       is_visible="true"
       method="segments"
       max_segment_size="1"
       segments="9"
       displace_x="8.7;1"
       displace_y="2;2147483646"
       global_randomize="1;2147483646"
       handles="along"
       shift_nodes="true"
       fixed_displacement="false"
       spray_tool_friendly="false" />
    <inkscape:path-effect
       effect="sketch"
       id="path-effect894"
       is_visible="true"
       nbiter_approxstrokes="5"
       strokelength="100"
       strokelength_rdm="0.3;1"
       strokeoverlap="0.3"
       strokeoverlap_rdm="0.3;1"
       ends_tolerance="0.1;1"
       parallel_offset="5;1"
       tremble_size="5;1"
       tremble_frequency="1"
       nbtangents="5"
       tgt_places_rdmness="1;1"
       tgtscale="10"
       tgtlength="100"
       tgtlength_rdm="0.3;1" />
    <inkscape:path-effect
       effect="roughen"
       id="path-effect892"
       is_visible="true"
       method="segments"
       max_segment_size="10"
       segments="2"
       displace_x="10;1"
       displace_y="10;1"
       global_randomize="1;1"
       handles="along"
       shift_nodes="true"
       fixed_displacement="false"
       spray_tool_friendly="false" />
    <linearGradient
       inkscape:collect="always"
       id="linearGradient821">
      <stop
         style="stop-color:#5efa31;stop-opacity:1"
         offset="0"
         id="stop817" />
      <stop
         style="stop-color:#093d1d;stop-opacity:1"
         offset="1"
         id="stop819" />
    </linearGradient>
    <linearGradient
       inkscape:collect="always"
       xlink:href="#linearGradient821"
       id="linearGradient823"
       x1="92.089066"
       y1="82.277473"
       x2="192.83998"
       y2="270.55859"
       gradientUnits="userSpaceOnUse" />
  </defs>
  <sodipodi:namedview
     id="base"
     pagecolor="#ffffff"
     bordercolor="#666666"
     borderopacity="1.0"
     inkscape:pageopacity="0.0"
     inkscape:pageshadow="2"
     inkscape:zoom="0.41038433"
     inkscape:cx="394.57696"
     inkscape:cy="463.34823"
     inkscape:document-units="mm"
     inkscape:current-layer="layer1"
     showgrid="false"
     fit-margin-top="0"
     fit-margin-left="0"
     fit-margin-right="0"
     fit-margin-bottom="0"
     inkscape:window-width="1366"
     inkscape:window-height="720"
     inkscape:window-x="0"
     inkscape:window-y="1080"
     inkscape:window-maximized="1" />
  <metadata
     id="metadata5">
    <rdf:RDF>
      <cc:Work
         rdf:about="">
        <dc:format>image/svg+xml</dc:format>
        <dc:type
           rdf:resource="http://purl.org/dc/dcmitype/StillImage" />
        <dc:title></dc:title>
      </cc:Work>
    </rdf:RDF>
  </metadata>
  <g
     inkscape:label="Layer 1"
     inkscape:groupmode="layer"
     id="layer1"
     transform="translate(-12.099881,-14.576823)">
    <g
       id="g956"
       transform="matrix(1.3097948,0.7562104,-0.6446397,1.1165487,80.041193,-146.22096)"
       style="stroke-width:0.71612716">
      <ellipse
         ry="106.22155"
         rx="77.500702"
         cy="175.73421"
         cx="128.1041"
         id="path815"
         style="opacity:1;fill:url(#linearGradient823);fill-opacity:1;stroke:none;stroke-width:4.54740763;stroke-linecap:round;stroke-linejoin:round;stroke-miterlimit:4;stroke-dasharray:none;stroke-opacity:1" />
      <g
         style="opacity:0.569;stroke-width:0.71612716"
         id="g931">
        <path
           style="fill:#000000;fill-opacity:1;stroke:none;stroke-width:0.18947527px;stroke-linecap:butt;stroke-linejoin:miter;stroke-opacity:1"
           d="m 127.11592,68.921553 c 0,0 0.13061,0.414819 5.3e-4,1.720568 1.81769,1.374994 -1.57387,3.402851 -1.86479,5.917755 -1.49101,2.470628 -4.18708,5.305148 -4.51842,8.567659 -3.93661,3.369431 -0.37874,7.027531 -0.57957,11.068585 0.0105,4.17105 -3.60387,9.35373 -3.71537,14.11761 -3.35285,5.30993 -2.71779,9.74611 -2.46688,14.7105 -2.47075,5.50754 4.2836,10.59449 5.12004,15.99561 4.09079,5.15671 -1.67193,10.29864 -1.77754,15.48177 -0.109,5.34919 0.0649,9.3404 0.0649,14.6759 0,5.26802 -0.94858,11.63939 -0.76321,17.1525 -0.87668,6.1685 4.63753,9.7818 4.9665,15.03681 4.55481,4.96637 -1.66785,12.7003 -1.34119,18.24817 -2.07534,6.29509 -2.47252,9.88582 -2.11318,14.51831 -2.70399,5.18836 -3.48432,10.06894 -2.85194,14.57221 -3.74,5.02303 -0.97759,10.08457 0.31102,14.00593 -1.46374,4.72594 2.41681,6.91512 4.2986,9.43877 0.63725,1.53185 4.01923,2.45644 5.22615,3.49909 0.76882,0.66418 1.06745,3.86289 1.06745,3.86289 1.08953,-7.52423 2.3176,-14.33333 3.19301,-21.94686 1.14415,-7.0843 -0.77059,-15.88471 -0.11787,-23.84261 -1.82175,-7.83466 2.19174,-16.75956 2.66386,-24.54986 1.44322,-8.65552 0.68157,-15.08888 0.90833,-22.44997 0.13496,-8.15007 0.24798,-14.48787 0.23037,-22.25112 -0.12618,-7.21215 -0.34218,-15.15919 -0.66639,-23.5316 -0.48303,-6.93528 2.17202,-17.87573 1.53864,-26.5097 2.36939,-9.02018 -8.47462,-15.85309 -10.10657,-23.650221 -1.68485,-8.049857 4.62183,-15.712001 3.29357,-23.858696 z"
           id="path826"
           inkscape:connector-curvature="0"
           sodipodi:nodetypes="cscc"
           inkscape:path-effect="#path-effect896"
           inkscape:original-d="m 125.36878,68.600874 c 0,0 -5.92652,56.529916 -5.92652,103.942116 0,47.41219 6.3824,107.5892 6.3824,107.5892 9.80577,-67.71815 11.57438,-137.74519 -0.45588,-211.531316 z" />
        <path
           inkscape:original-d="m 125.36878,68.600874 c 0,0 47.4122,53.794606 47.4122,101.206806 0,47.41219 -46.60201,111.70451 -46.60201,111.70451 32.98592,-69.88101 32.89741,-141.82138 -0.81019,-212.911316 z"
           inkscape:path-effect="#path-effect900"
           sodipodi:nodetypes="cscc"
           inkscape:connector-curvature="0"
           id="path898"
           d="m 126.7324,69.273848 c 0,0 4.20985,0.565864 5.25045,1.811579 5.58587,1.290268 -3.63896,1.68927 -2.81318,2.767479 -2.94408,2.69999 -0.96745,6.496209 2.26238,10.970264 -2.99624,4.073234 6.42815,9.340709 9.98798,14.269971 2.89483,4.608019 4.78041,7.651239 7.46898,11.640659 2.38846,4.56299 5.80021,9.16395 8.55669,13.8299 2.68329,4.93238 6.79853,9.57544 9.0248,14.39519 3.76003,5.1169 2.64525,9.86436 3.64466,14.86741 1.05065,5.25964 1.4384,10.5473 1.4384,15.95269 0,5.26802 -0.93839,11.89098 -1.93426,17.46507 -1.30893,6.35555 -2.09556,10.29321 -3.67663,15.554 -1.58517,5.54951 -6.33378,12.11996 -8.59022,17.71489 -4.57819,5.67709 -7.63374,10.17416 -9.78853,14.88055 -5.63125,4.94729 -11.51532,9.37619 -13.45965,13.5919 -9.19342,4.29334 -7.0379,8.17372 -8.14432,11.67117 -5.281,5.25254 -3.23962,8.82174 -3.02884,12.17617 -1.09723,3.16594 1.78952,4.77546 2.6644,6.10598 0.36139,0.5496 0.65116,3.42326 0.65116,3.42326 3.66511,-7.76455 10.51277,-15.07467 13.35899,-22.90473 6.39533,-7.22249 3.85053,-16.70906 5.76301,-24.48632 0.58421,-8.92859 3.41195,-15.43615 4.49975,-23.12376 1.16602,-8.04568 1.7963,-16.60631 2.07278,-24.5836 0.23888,-8.45758 -0.44793,-13.95532 -0.9788,-21.71941 -1.16033,-6.78016 -1.59146,-16.56858 -3.03241,-25.12044 -1.36449,-7.66023 -1.38708,-17.27027 -3.51655,-25.3699 -0.38001,-9.07075 -9.39267,-15.580272 -12.6498,-23.145479 -3.34384,-7.766623 -1.28371,-14.730893 -5.03124,-22.634493 z"
           style="fill:#000000;fill-opacity:1;stroke:none;stroke-width:0.18947527px;stroke-linecap:butt;stroke-linejoin:miter;stroke-opacity:1" />
        <path
           style="fill:#000000;fill-opacity:1;stroke:none;stroke-width:0.18947527px;stroke-linecap:butt;stroke-linejoin:miter;stroke-opacity:1"
           d="m 125.60242,68.446455 c 0,0 1.21245,0.307194 1.98779,0.555584 1.63106,0.230786 1.34725,0.557803 2.34585,0.920344 1.3215,0.59641 2.51147,1.246572 4.54309,2.11914 1.44165,0.95379 5.54779,1.988821 8.13879,3.308231 3.23271,1.091124 1.2765,3.001663 3.63548,4.406871 0.0614,2.573947 5.8499,4.363754 9.38233,6.874264 2.14201,2.342153 6.47434,4.361598 9.47497,6.868243 3.37061,2.352865 5.53901,4.843655 8.25677,7.583088 2.85007,2.88858 -0.13152,4.64361 2.54114,8.03443 -2.43143,2.89568 4.63495,9.99895 8.2305,15.31836 0.22396,4.86099 8.36111,7.29427 11.05956,11.63408 5.42431,3.4016 -0.35288,9.97124 0.95146,14.76054 1.47329,5.40967 4.49614,9.89525 5.08162,15.82194 0.5332,5.39751 0.0271,10.67519 -0.30954,15.75252 -0.90286,5.05933 -2.25481,10.46047 -3.2977,15.15427 -2.18072,4.98652 -4.72737,8.05772 -6.20526,12.15766 -4.0085,3.59646 2.39036,6.81116 0.50362,10.68948 3.08047,3.80895 -0.55387,11.6061 -3.75006,16.27248 2.04885,5.6308 -5.96822,8.97682 -9.33944,12.64646 -2.63572,3.80832 -10.70102,5.73922 -13.62347,8.34508 -6.92905,1.58965 0.60631,2.0414 -1.2003,3.57543 0.59417,1.93293 -9.11481,5.76179 -12.67493,8.28382 -3.62094,1.13605 -4.65852,3.95895 -6.43793,5.22217 -2.21046,2.22556 -11.24824,3.5817 -12.48458,4.38542 -11.18814,3.40378 8.94929,0.43458 8.94929,0.43458 0,0 -5.87173,0.99103 -5.87173,0.99103 4.75409,-6.27576 11.48845,-12.22866 15.38157,-18.48564 6.16657,-5.70622 8.36944,-11.92409 11.31325,-17.91109 4.32452,-6.07737 7.21998,-12.08762 9.41188,-18.21159 3.80634,-5.99266 9.46267,-11.33822 10.8171,-17.50393 6.87614,-5.42288 -0.56799,-13.26244 -0.2235,-19.71361 -2.55527,-6.32397 -0.15013,-11.63988 -0.65921,-17.64005 -0.88841,-5.42804 -1.96148,-12.32085 -3.25569,-18.17974 -1.72433,-5.71042 -3.06518,-11.17052 -4.8543,-16.35207 -2.13588,-5.57959 -2.55217,-11.17178 -4.83844,-16.00129 -1.11675,-6.07776 -2.09058,-9.85631 -5.09069,-14.42141 -0.39726,-5.24571 -7.62214,-9.875974 -12.16214,-14.520811 -4.09832,-3.964791 -1.79885,-7.990613 -6.11677,-11.764399 -4.45851,-3.89667 -15.14789,-7.752941 -19.61038,-11.409885 z"
           id="path902"
           inkscape:connector-curvature="0"
           sodipodi:nodetypes="cscc"
           inkscape:path-effect="#path-effect904"
           inkscape:original-d="m 125.36878,68.600874 c 0,0 70.65278,19.465039 78.41248,98.015596 6.93159,70.16775 -68.02867,113.98395 -68.02867,113.98395 C 197.55568,199.01557 185.3567,117.7601 125.36878,68.600874 Z" />
        <path
           inkscape:original-d="m 125.36878,68.600874 c 0,0 -36.729458,29.647058 -38.294462,90.721406 -1.892423,73.85187 38.750342,120.80991 38.750342,120.80991 C 89.874815,208.21074 95.708575,138.08569 125.36878,68.600874 Z"
           inkscape:path-effect="#path-effect908"
           sodipodi:nodetypes="cscc"
           inkscape:connector-curvature="0"
           id="path906"
           d="m 127.13225,68.921553 c 0,0 -1.5744,0.08293 -2.38268,0.8174 -0.21763,0.819192 -2.37562,2.070783 -3.94028,3.688678 -1.63668,1.532982 -3.995,3.279438 -5.75826,5.387488 -2.72631,2.152716 -2.8797,4.511134 -4.7821,7.256694 -1.3799,3.051514 -5.47309,7.174505 -7.62818,11.034779 -3.112232,4.152648 -6.356313,7.527178 -8.056062,11.610568 -4.381017,4.6346 -2.387814,9.06032 -3.432346,14.10877 -0.308063,5.36031 -4.457677,11.06214 -5.166603,17.25931 -0.682246,5.96395 -4.833124,10.9888 -5.009492,17.87156 -0.21027,8.20576 -2.773583,17.02526 -1.913859,24.56942 -2.100237,8.41598 4.975622,13.87055 6.705591,20.6196 4.507382,6.06408 -2.014853,14.54694 0.242939,20.57811 -3.370846,7.85661 4.909261,12.6307 7.970461,18.11717 2.495418,5.26247 5.64791,9.99063 8.731021,14.19548 2.64863,4.15768 4.16905,8.31387 6.9905,11.40791 1.11868,3.86346 4.693,5.29129 7.30847,7.27233 1.17658,1.29448 11.10458,1.99077 12.81899,2.93148 1.21739,0.66798 -0.98361,3.86389 -0.98361,3.86389 -3.99443,-7.99127 -7.21243,-15.21672 -10.26612,-23.19551 -2.85148,-7.4681 -9.81322,-16.59809 -12.00592,-24.83087 -6.06096,-7.86959 -2.8629,-16.77843 -3.97381,-24.50164 -0.33884,-8.98558 -2.923961,-15.70166 -3.193641,-23.29814 -1.429144,-8.31788 -0.322806,-14.77134 0.312197,-22.59815 0.424394,-7.22247 -6.200152,-15.12326 -4.607214,-23.39147 -6.330475,-7.46058 8.503828,-18.9017 12.533528,-27.97142 6.5033,-7.88052 2.54071,-13.540444 5.16698,-20.117328 3.0811,-7.715873 11.0261,-14.970666 14.3195,-22.686109 z"
           style="fill:#000000;fill-opacity:1;stroke:none;stroke-width:0.18947527px;stroke-linecap:butt;stroke-linejoin:miter;stroke-opacity:1" />
        <path
           style="fill:#000000;fill-opacity:1;stroke:none;stroke-width:0.18947527px;stroke-linecap:butt;stroke-linejoin:miter;stroke-opacity:1"
           d="m 127.13225,68.921553 c 0,0 -1.87833,0.156099 -3.22692,1.020642 -0.77876,0.948737 -3.7525,2.38508 -6.31197,4.223813 -2.57386,1.766123 -6.02825,3.790572 -8.98349,6.207175 -3.88534,2.440357 -5.28819,5.111008 -8.47258,8.179746 -2.775721,3.384897 -8.30334,7.848589 -11.8565,12.038581 -4.384908,4.4666 -8.871375,8.14898 -11.726919,12.52075 -5.548021,4.8437 -4.644245,9.44354 -6.631519,14.61343 -1.370696,5.66558 -6.387165,11.6374 -7.687703,18.05183 -1.237778,6.10489 -5.699658,11.21343 -5.876272,18.10581 -0.21027,8.20576 -2.469658,16.95209 -1.069625,24.36618 -1.536511,8.43254 6.365512,13.83116 9.105641,20.46699 5.418833,5.68785 -0.04575,13.76997 3.359657,19.39311 -1.866819,7.83533 8.090112,12.50538 12.865859,17.82531 3.870311,4.81563 8.409413,9.1016 12.825322,12.88717 3.935545,3.73007 6.691489,7.48501 10.639109,10.22138 2.31064,3.47995 6.94899,4.57637 10.43798,6.297 1.9669,1.01902 12.49812,1.5086 14.64082,2.34755 1.63653,0.64076 -0.31639,3.82417 -0.31639,3.82417 -8.48068,-7.28918 -15.67273,-13.87926 -22.19287,-21.29317 -6.41164,-6.8686 -16.398152,-15.47369 -21.085114,-23.26034 -8.298824,-7.27562 -6.916199,-15.65687 -9.421248,-22.92236 -1.846003,-8.88572 -5.435994,-15.57592 -6.214562,-23.22436 -1.953962,-8.3167 -0.845815,-14.85249 0.310549,-22.84952 0.95896,-7.30486 -4.579787,-15.3848 -1.355926,-23.93278 -4.587094,-7.76183 12.630032,-19.62194 19.65555,-29.22982 8.679793,-8.16877 7.226599,-14.18429 12.694301,-21.185356 6.47277,-8.287987 18.2728,-16.209165 25.89482,-24.692931 z"
           id="path910"
           inkscape:connector-curvature="0"
           sodipodi:nodetypes="cscc"
           inkscape:path-effect="#path-effect912"
           inkscape:original-d="m 125.36878,68.600874 c 0,0 -61.347328,35.573586 -62.912332,96.647936 -1.892423,73.85187 63.368212,114.88338 63.368212,114.88338 C 49.49856,214.52954 56.443661,145.3187 125.36878,68.600874 Z" />
      </g>
    </g>
  </g>
</svg>
